<svg width="24" height="25" viewBox="0 0 24 25" fill="none" xmlns="http://www.w3.org/2000/svg">
<g clip-path="url(#clip0_79_284)">
<path fill-rule="evenodd" clip-rule="evenodd" d="M11.9622 24.0145C18.5688 24.0145 23.9244 18.6589 23.9244 12.0523C23.9244 5.44575 18.5688 0.0900879 11.9622 0.0900879C5.35567 0.0900879 0 5.44575 0 12.0523C0 18.6589 5.35567 24.0145 11.9622 24.0145ZM12.0621 14.4076C14.1878 11.1868 14.2816 9.23486 12.0621 5.78639C9.80025 9.30846 10.0918 11.1753 12.0621 14.4076ZM11.0524 18.6033C11.3903 14.6753 10.5606 12.9346 7.0292 11.1371C6.71399 15.399 7.83767 16.8596 11.0524 18.6033ZM13.0848 18.6033C12.7469 14.6753 13.5766 12.9346 17.1081 11.1371C17.4232 15.399 16.2996 16.8596 13.0848 18.6033Z" fill="black"/>
</g>
<defs>
<clipPath id="clip0_79_284">
<rect width="24" height="24.2697" fill="white"/>
</clipPath>
</defs>
</svg>
