<svg width="128" height="128" viewBox="0 0 128 128" fill="none" xmlns="http://www.w3.org/2000/svg">
<path fill-rule="evenodd" clip-rule="evenodd" d="M107.904 64C107.904 88.2477 88.2477 107.905 64 107.905C39.7523 107.905 20.0957 88.2477 20.0957 64H64H107.904ZM114 64C114 91.6143 91.6138 114 64 114C36.3857 114 14 91.6143 14 64C14 50.2168 19.577 37.7363 28.5976 28.6918C28.6132 28.6761 28.6289 28.6604 28.6446 28.6446C28.6535 28.6359 28.6624 28.627 28.6712 28.6182C28.7419 28.5476 28.8128 28.4771 28.884 28.4069C37.9127 19.4985 50.3142 14 64 14C77.7384 14 90.1828 19.5409 99.2203 28.5099C99.2654 28.5548 99.3104 28.5997 99.3555 28.6446C99.4005 28.6897 99.4448 28.7347 99.4899 28.7799C108.459 37.8172 114 50.2615 114 64Z" fill="black"/>
</svg>
