<svg width="128" height="128" viewBox="0 0 128 128" fill="none" xmlns="http://www.w3.org/2000/svg">
<g clip-path="url(#clip0_400_356)">
<path fill-rule="evenodd" clip-rule="evenodd" d="M119.638 63.8262C119.638 94.5024 94.7703 119.371 64.0942 119.371C33.418 119.371 8.55013 94.5024 8.55013 63.8262H64.0942H119.638ZM127.35 63.8262C127.35 98.7615 99.0289 127.082 64.0942 127.082C29.1589 127.082 0.838379 98.7615 0.838379 63.8262C0.838379 46.3889 7.89397 30.5996 19.306 19.1573C19.3258 19.1374 19.3457 19.1175 19.3655 19.0976C19.3767 19.0865 19.388 19.0753 19.3991 19.0641C19.4886 18.9748 19.5783 18.8856 19.6684 18.7969C31.0907 7.52668 46.7801 0.570435 64.0942 0.570435C81.4749 0.570435 97.2185 7.58037 108.652 18.9272C108.709 18.984 108.766 19.0407 108.823 19.0976C108.88 19.1546 108.936 19.2116 108.993 19.2687C120.34 30.7019 127.35 46.4455 127.35 63.8262Z" fill="black"/>
</g>
<defs>
<clipPath id="clip0_400_356">
<rect width="127.5" height="127.5" fill="white"/>
</clipPath>
</defs>
</svg>
